PathFileType	4	(X/Y/Z)	./resultDataOpenSim/trcMotMarkerGrf/sub10/qtm-03-01.trc
DataRate	CameraRate	NumFrames	NumMarkers	Units	OrigDataRate	OrigDataStartFrame	OrigNumFrames
250.000000	250.000000	7	24	m	250.000000	362	482
Frame#	Time	L.Toe.Tip			R.Toe.Tip			L.Ankle.Lat			R.Ankle.Lat			L.Ankle.Med			R.Ankle.Med			L.Heel			R.Heel			L.Knee.Lat			R.Knee.Lat			L.Knee.Med			R.Knee.Med			L.Thigh.Upper			R.Thigh.Upper			L.ASIS			R.ASIS			V.Sacral			L.Acromium			R.Acromium			C7			L.Elbow			R.Elbow			L.Wrist.Lat			R.Wrist.Lat
		X1	Y1	Z1	X2	Y2	Z2	X3	Y3	Z3	X4	Y4	Z4	X5	Y5	Z5	X6	Y6	Z6	X7	Y7	Z7	X8	Y8	Z8	X9	Y9	Z9	X10	Y10	Z10	X11	Y11	Z11	X12	Y12	Z12	X13	Y13	Z13	X14	Y14	Z14	X15	Y15	Z15	X16	Y16	Z16	X17	Y17	Z17	X18	Y18	Z18	X19	Y19	Z19	X20	Y20	Z20	X21	Y21	Z21	X22	Y22	Z22	X23	Y23	Z23	X24	Y24	Z24

362	1.444	0.79906604	0.069582412	-0.20603064	0.79665943	0.039591693	-0.065847331	0.69309083	0.15290178	-0.22308396	0.65794358	0.05478005	-0.011618769	0.71724577	0.16853913	-0.1421805	0.66870311	0.083167981	-0.096316247	0.62734793	0.1508785	-0.16995018	0.60405534	0.031029668	-0.050501304	0.88673949	0.48673075	-0.25478767	0.72475986	0.45232647	0.026937519	0.91536605	0.46027605	-0.13727765	0.72288907	0.45850464	-0.10096066	0.75308719	0.84355714	-0.29571434	0.73430405	0.86904061	0.08475332	0.79584927	0.95859011	-0.23034119	0.80009879	0.96548896	0.012746631	0.595738	0.96379467	-0.11049127	0.72825941	1.4306954	-0.26088693	0.70800365	1.4247987	0.061858935	0.6377898	1.4539539	-0.10811581	0.63129081	1.106935	-0.34561086	0.62853729	1.0729988	0.10675665	0.75476934	0.89299468	-0.35049048	0.8227605	0.92550158	0.16718064
363	1.448	0.8166856	0.068645499	-0.20648253	0.79667265	0.03954465	-0.065834402	0.70852986	0.14911956	-0.22325328	0.65798623	0.054870668	-0.011750911	0.73244386	0.16530976	-0.14227323	0.66851969	0.083253965	-0.096556676	0.64292425	0.14547731	-0.1696958	0.6040452	0.031089008	-0.050760026	0.89477775	0.48769321	-0.25468854	0.72600009	0.45216324	0.026726967	0.92528352	0.46173823	-0.13699526	0.72513155	0.45811851	-0.1008054	0.76086678	0.84420145	-0.29619156	0.73742652	0.86863278	0.084695781	0.80208521	0.95884273	-0.22976426	0.80428727	0.96507907	0.013370847	0.60329956	0.96352681	-0.11190748	0.73333715	1.430253	-0.26115687	0.71283381	1.4249292	0.061646475	0.64275315	1.4537802	-0.10846572	0.63439067	1.1072742	-0.34581033	0.63594831	1.0725047	0.10792487	0.75511908	0.89191665	-0.35183945	0.8328874	0.9276444	0.16633662
364	1.452	0.83448608	0.067762575	-0.20692991	0.79670838	0.039540261	-0.065800198	0.72410713	0.14533028	-0.22339582	0.6580237	0.054962824	-0.01187405	0.74785472	0.16202035	-0.14242417	0.66842054	0.083338881	-0.096759811	0.6585904	0.14007684	-0.1696331	0.60395548	0.031178826	-0.051082042	0.9026891	0.48853439	-0.25461095	0.72752236	0.4520097	0.026621192	0.93405735	0.46284877	-0.13676398	0.72729851	0.45780396	-0.10095222	0.7685058	0.84475077	-0.29656618	0.74009567	0.86828144	0.084735327	0.80833506	0.95901632	-0.2292037	0.80846155	0.96463845	0.013989345	0.60959881	0.96300523	-0.11169261	0.73842522	1.429742	-0.26143039	0.71767682	1.4249817	0.061434298	0.64771371	1.4535538	-0.10881599	0.63752132	1.1075646	-0.34599583	0.64341679	1.071957	0.10912334	0.75556365	0.89080769	-0.35314456	0.84296728	0.92972909	0.16544221
365	1.456	0.85240734	0.066927136	-0.2073755	0.79678318	0.039567107	-0.065756585	0.73982641	0.14156439	-0.22350946	0.6580567	0.055054059	-0.011990674	0.7634199	0.15868704	-0.14264608	0.6684594	0.083406651	-0.096921778	0.67438907	0.13465962	-0.16966339	0.60386607	0.031308906	-0.051361243	0.91047826	0.4892468	-0.25455046	0.72920782	0.45185611	0.026569337	0.94171434	0.46364562	-0.1366698	0.72940059	0.45756451	-0.10138294	0.77583402	0.84518592	-0.29679821	0.74249909	0.86797433	0.084830673	0.81457911	0.95910944	-0.22865628	0.81260808	0.96416938	0.014583123	0.61396074	0.96236863	-0.1102752	0.7435295	1.4291663	-0.2617106	0.72253206	1.4249539	0.061220457	0.65267682	1.453278	-0.10916291	0.64068035	1.107808	-0.34616241	0.65092949	1.0713504	0.11034882	0.75614128	0.88968148	-0.35442923	0.85298125	0.93174542	0.16448521
366	1.46	0.87036353	0.066152911	-0.20779706	0.79689651	0.039600924	-0.065716288	0.75567644	0.13781588	-0.22360868	0.65808846	0.055143053	-0.012101673	0.77903999	0.15535567	-0.14290069	0.66858626	0.083451466	-0.09706694	0.69037475	0.12922198	-0.1696929	0.6038312	0.031474791	-0.051543205	0.91815549	0.48981951	-0.25449804	0.73097539	0.45167923	0.026518209	0.94893336	0.46428665	-0.13665586	0.73152506	0.45733593	-0.1018836	0.78290818	0.8455041	-0.29691765	0.74506951	0.86770469	0.084862179	0.82081981	0.95911793	-0.22812384	0.81672859	0.96367972	0.015146598	0.61617672	0.96180202	-0.10835137	0.74864046	1.4285301	-0.26200518	0.72740081	1.4248443	0.061003059	0.65764148	1.4529493	-0.10950575	0.6438576	1.1079901	-0.34631088	0.65847939	1.0706599	0.11158727	0.75680467	0.88854468	-0.355705	0.86296277	0.93369631	0.16345514
367	1.464	0.88828391	0.065454817	-0.20817712	0.79702386	0.039621005	-0.065671399	0.77163891	0.13405712	-0.22371308	0.6581237	0.055229041	-0.012208032	0.79465658	0.15207337	-0.14309366	0.66874085	0.083479272	-0.097213099	0.70655979	0.12377612	-0.1696856	0.60384016	0.031649537	-0.051664624	0.92575723	0.49024709	-0.25444566	0.73281831	0.45146136	0.026431983	0.95622719	0.46489238	-0.13667223	0.73374833	0.45705784	-0.10225708	0.78986572	0.8457139	-0.2969791	0.74809334	0.86744077	0.08475132	0.82706925	0.95904147	-0.22762509	0.82083178	0.96317782	0.015682942	0.6172266	0.96145986	-0.1067892	0.75374759	1.4278369	-0.26231604	0.73228529	1.4246545	0.060782893	0.66260132	1.4525639	-0.10984815	0.64704159	1.1081027	-0.3464426	0.6660235	1.0698541	0.11279179	0.75739499	0.88738345	-0.35692739	0.87297833	0.93560645	0.16236974
368	1.468	0.90615139	0.064833464	-0.20851957	0.79714511	0.039639632	-0.065581212	0.78770389	0.1302828	-0.22383718	0.6581682	0.055311309	-0.012311422	0.81029626	0.14885671	-0.14315447	0.66890119	0.083496271	-0.097364072	0.72292405	0.11833404	-0.16967207	0.60383409	0.031823851	-0.051808742	0.93335598	0.49053356	-0.25438471	0.73476075	0.45119754	0.026297972	0.9636829	0.46548002	-0.13670189	0.73608089	0.45672746	-0.10247369	0.79682841	0.84582466	-0.29703008	0.75148076	0.86712146	0.084521219	0.83332094	0.95888553	-0.22718236	0.82492328	0.96266826	0.016194752	0.61910259	0.96151906	-0.10649382	0.75885139	1.4270898	-0.26263781	0.73718483	1.424388	0.060560714	0.66755279	1.4521237	-0.11019603	0.65022408	1.108154	-0.34654753	0.67347047	1.0689358	0.11387859	0.757776	0.88618866	-0.35803769	0.88304638	0.93750307	0.1612665
